<svg width="95" height="53" viewBox="0 0 95 53" fill="none" xmlns="http://www.w3.org/2000/svg">
<path d="M56.582 19.0444C55.7016 12.6599 48.8847 8.52108 48.8847 8.52108C48.8847 8.52108 51.9095 12.5002 52.7178 17.198C53.4306 21.3426 52.2698 24.2272 52.2698 24.2272C52.2698 24.2272 50.885 17.7998 45.7977 12.3931C41.7699 8.11791 35.2023 5.31909 35.2023 5.31909C35.2023 5.31909 32.3041 15.7996 40.4143 26.354C38.7327 25.1538 36.8833 24.2081 34.9257 23.5474C30.9057 22.2074 25.8203 22.8151 25.8203 22.8151C25.8203 22.8151 29.182 32.9294 41.9899 36.032C33.5214 30.0644 31.0226 24.9088 31.0226 24.9088C31.0226 24.9088 33.4805 25.1134 37.3934 26.878C39.9663 28.0466 46.3936 31.5641 52.5522 35.3153C50.1936 33.2936 46.602 30.1247 44.4109 27.509C37.6719 19.4592 39.8611 11.5108 39.8611 11.5108C39.8611 11.5108 43.8461 13.6006 47.1805 18.4835C49.3755 21.701 52.3906 29.9942 52.3906 29.9942C52.3906 29.9942 57.6493 26.8137 56.582 19.0444Z" fill="#009a4e"/>
<path d="M82.4414 35.0582C78.7609 34.0241 74.9932 33.3304 71.1857 32.9859C71.1857 32.9859 74.4169 32.3529 78.2363 31.9965C84.2741 31.4316 89.6264 33.0443 89.6264 33.0443C89.2814 34.3969 88.7896 35.7076 88.1598 36.9533C88.9422 36.5865 89.6888 36.1477 90.3898 35.6425C93.1322 33.6364 93.2938 31.3966 93.2938 31.3966C93.2938 31.3966 88.596 28.8257 81.3273 29.6047C81.1208 29.6281 80.7118 29.7255 80.7118 29.7255C81.1517 29.5143 81.5688 29.2584 81.9564 28.962C84.3596 27.0401 86.0694 24.3859 86.8256 21.403C86.8256 21.403 81.5669 20.735 77.5274 21.6134C69.6568 23.3235 66.9885 29.7021 66.9885 29.7021C66.9885 29.7021 71.0416 26.7962 73.7859 25.8418C77.0853 24.6946 80.5521 24.7686 80.5521 24.7686C80.5521 24.7686 77.5157 29.2288 71.5928 31.0577C67.5825 32.2984 63.1301 32.6528 63.1301 32.6528C63.1301 32.6528 65.5355 22.8443 77.4144 19.8741C84.5916 18.0784 95 20.0806 95 20.0806C95 20.0806 82.6322 13.7097 71.6882 18.8516C79.142 10.8564 73.5191 0 73.5191 0C73.5191 0 66.1062 1.44713 61.4668 5.58594C57.5305 9.09177 56.3561 13.8811 57.0631 16.641C57.0631 16.641 58.7771 13.3046 62.4504 9.72866C65.592 6.67275 69.3997 4.62963 69.3997 4.62963C69.3997 4.62963 70.7417 12.4204 67.3605 20.2637C61.9907 32.7288 55.0103 36.3398 55.0103 36.3398C55.0103 36.3398 68.0208 34.8829 76.0997 36.8696C82.9049 38.5446 86.2277 40.9597 86.2277 40.9597C86.2277 40.9597 76.3315 47.8175 60.1833 44.3857C49.399 42.0952 44.0526 37.8687 44.0526 37.8687C44.0526 37.8687 52.0946 46.0977 65.0155 48.3862C86.1575 52.1335 93.0776 42.0056 93.0776 42.0056C93.0776 42.0056 89.0089 36.965 82.4414 35.0582ZM26.8001 49.7359C32.1679 49.6561 38.0343 48.0473 38.0343 48.0473C38.0343 48.0473 34.7894 50.2638 33.2722 50.9435C31.6537 51.668 30.043 52.7334 26.467 52.3186C21.4225 51.7343 18.2127 49.5334 15.7898 47.909C15.7898 47.909 18.8672 49.8567 26.8001 49.7379V49.7359ZM24.8115 44.6681C17.6284 42.2276 13.4701 38.5329 10.6967 35.1556C10.6967 35.1556 17.6557 37.598 24.9731 38.9302C30.9973 40.0268 39.0704 42.5217 43.2151 46.1269C40.0423 40.3793 33.2819 36.2775 24.4823 35.1517C5.50609 32.721 0.884246 28.0329 0 27.2227C0.946572 30.0663 5.59763 42.2646 17.5057 46.1405C27.1857 49.2938 39.0607 46.6664 39.0607 46.6664C39.0607 46.6664 33.1709 47.5058 24.8134 44.6661" fill="#009a4e"/>
</svg>
